<?xml version="1.0" encoding="iso-8859-1"?>
<!-- Generator: Adobe Illustrator 16.0.0, SVG Export Plug-In . SVG Version: 6.00 Build 0)  -->
<!DOCTYPE svg PUBLIC "-//W3C//DTD SVG 1.1//EN" "http://www.w3.org/Graphics/SVG/1.1/DTD/svg11.dtd">
<svg version="1.1" id="Capa_1" xmlns="http://www.w3.org/2000/svg" xmlns:xlink="http://www.w3.org/1999/xlink" x="0px" y="0px"
	 width="27px" height="27px" viewBox="0 0 27 27" style="enable-background:new 0 0 27 27;" xml:space="preserve">
<g>
	<g>
		<path d="M14.439,11.746C14.229,8.451,13.5,6,13.5,6s-0.728,2.451-0.94,5.746c-0.169,0.09-0.331,0.197-0.475,0.34
			c-0.143,0.142-0.249,0.304-0.34,0.474C8.451,12.772,6,13.5,6,13.5s2.451,0.729,5.746,0.939c0.09,0.168,0.197,0.332,0.34,0.474
			c0.781,0.78,2.048,0.78,2.827,0.001c0.78-0.781,0.782-2.048,0.001-2.829C14.771,11.943,14.609,11.836,14.439,11.746z"/>
		<path d="M13.5,0C6.056,0,0,6.056,0,13.5C0,20.943,6.056,27,13.5,27C20.943,27,27,20.943,27,13.5C27,6.056,20.943,0,13.5,0z
			 M13.5,25C7.159,25,2,19.841,2,13.5S7.159,2,13.5,2S25,7.159,25,13.5S19.841,25,13.5,25z"/>
		<path d="M13.5,2.5c-6.065,0-11,4.935-11,11c0,6.064,4.935,11,11,11c6.064,0,11-4.936,11-11C24.5,7.435,19.564,2.5,13.5,2.5z
			 M13.5,23.5c-5.514,0-10-4.486-10-10c0-5.514,4.486-10,10-10c5.514,0,10,4.486,10,10C23.5,19.014,19.014,23.5,13.5,23.5z"/>
	</g>
</g>
<g>
</g>
<g>
</g>
<g>
</g>
<g>
</g>
<g>
</g>
<g>
</g>
<g>
</g>
<g>
</g>
<g>
</g>
<g>
</g>
<g>
</g>
<g>
</g>
<g>
</g>
<g>
</g>
<g>
</g>
</svg>
